HIERARCHY
ROOT Hips
{
	OFFSET 0.000000 103.266502 0.000000
	CHANNELS 6 Xposition Yposition Zposition Xrotation Yrotation Zrotation 
	JOINT Spine
	{
		OFFSET -0.002400 12.777504 0.315300
		CHANNELS 3 Xrotation Yrotation Zrotation
		JOINT Spine1
		{
			OFFSET -0.002067 5.816869 0.032633
			CHANNELS 3 Xrotation Yrotation Zrotation
			JOINT Spine1_split
			{
				OFFSET -0.002067 5.816869 0.032633
				CHANNELS 3 Xrotation Yrotation Zrotation
				JOINT Spine2
				{
					OFFSET -0.002067 5.816869 0.032633
					CHANNELS 3 Xrotation Yrotation Zrotation
					JOINT Neck
					{
						OFFSET -0.003700 21.199493 -0.826900
						CHANNELS 3 Xrotation Yrotation Zrotation
						JOINT Head
						{
							OFFSET 0.000000 20.442200 4.834800
							CHANNELS 3 Xrotation Yrotation Zrotation
							JOINT HeadTop_End
							{
								OFFSET 0.000000 34.668396 4.968400
								CHANNELS 3 Xrotation Yrotation Zrotation
								End Site
								{
									OFFSET 0.000000 0.000000 0.000000
								}
							}
						}
					}
					JOINT LeftShoulder
					{
						OFFSET 3.288150 8.794197 -1.372250
						CHANNELS 3 Xrotation Yrotation Zrotation
						JOINT LeftShoulder_split
						{
							OFFSET 3.288150 8.794197 -1.372250
							CHANNELS 3 Xrotation Yrotation Zrotation
							JOINT LeftArm
							{
								OFFSET 11.953299 -2.279007 -0.146200
								CHANNELS 3 Xrotation Yrotation Zrotation
								JOINT LeftForeArm
								{
									OFFSET 18.448900 0.000000 0.000000
									CHANNELS 3 Xrotation Yrotation Zrotation
									JOINT LeftHand
									{
										OFFSET 29.527798 0.000000 0.000000
										CHANNELS 3 Xrotation Yrotation Zrotation
										JOINT LeftHandThumb1
										{
											OFFSET 10.739754 -2.369614 9.225399
											CHANNELS 3 Xrotation Yrotation Zrotation
											JOINT LeftHandThumb2
											{
												OFFSET 4.926170 -2.844131 2.844125
												CHANNELS 3 Xrotation Yrotation Zrotation
												JOINT LeftHandThumb3
												{
													OFFSET 4.614891 -2.664413 2.664409
													CHANNELS 3 Xrotation Yrotation Zrotation
													JOINT LeftHandThumb4
													{
														OFFSET 4.432465 -2.559082 2.559083
														CHANNELS 3 Xrotation Yrotation Zrotation
														End Site
														{
															OFFSET 0.000000 0.000000 0.000000
														}
													}
												}
											}
										}
										JOINT LeftHandIndex1
										{
											OFFSET 26.467674 0.187653 6.405298
											CHANNELS 3 Xrotation Yrotation Zrotation
											JOINT LeftHandIndex2
											{
												OFFSET 8.792900 0.000000 0.000000
												CHANNELS 3 Xrotation Yrotation Zrotation
												JOINT LeftHandIndex3
												{
													OFFSET 10.075203 0.000000 0.000000
													CHANNELS 3 Xrotation Yrotation Zrotation
													End Site
													{
														OFFSET 0.000000 0.000000 0.000000
													}
												}
											}
										}
										JOINT LeftHandMiddle1
										{
											OFFSET 25.764404 0.000000 0.000000
											CHANNELS 3 Xrotation Yrotation Zrotation
											JOINT LeftHandMiddle2
											{
												OFFSET 9.393974 0.000000 0.000000
												CHANNELS 3 Xrotation Yrotation Zrotation
												JOINT LeftHandMiddle3
												{
													OFFSET 10.771950 0.000000 0.000000
													CHANNELS 3 Xrotation Yrotation Zrotation
													End Site
													{
														OFFSET 0.000000 0.000000 0.000000
													}
												}
											}
										}
										JOINT LeftHandRing1
										{
											OFFSET 24.660927 0.144547 -6.225808
											CHANNELS 3 Xrotation Yrotation Zrotation
											JOINT LeftHandRing2
											{
												OFFSET 9.393799 0.000000 0.000000
												CHANNELS 3 Xrotation Yrotation Zrotation
												JOINT LeftHandRing3
												{
													OFFSET 9.928497 0.000000 0.000000
													CHANNELS 3 Xrotation Yrotation Zrotation
													End Site
													{
														OFFSET 0.000000 0.000000 0.000000
													}
												}
											}
										}
										JOINT LeftHandPinky1
										{
											OFFSET 23.655350 0.125290 -12.815412
											CHANNELS 3 Xrotation Yrotation Zrotation
											JOINT LeftHandPinky2
											{
												OFFSET 8.425102 0.000000 0.000000
												CHANNELS 3 Xrotation Yrotation Zrotation
												JOINT LeftHandPinky3
												{
													OFFSET 8.147003 0.000000 0.000000
													CHANNELS 3 Xrotation Yrotation Zrotation
													End Site
													{
														OFFSET 0.000000 0.000000 0.000000
													}
												}
											}
										}
									}
								}
							}
						}
					}
					JOINT RightShoulder
					{
						OFFSET -3.249400 8.794197 -1.372250
						CHANNELS 3 Xrotation Yrotation Zrotation
						JOINT RightShoulder_split
						{
							OFFSET -3.249400 8.794197 -1.372250
							CHANNELS 3 Xrotation Yrotation Zrotation
							JOINT RightArm
							{
								OFFSET -11.953299 -2.279007 -0.146200
								CHANNELS 3 Xrotation Yrotation Zrotation
								JOINT RightForeArm
								{
									OFFSET -18.448900 0.000000 0.000000
									CHANNELS 3 Xrotation Yrotation Zrotation
									JOINT RightHand
									{
										OFFSET -29.527802 0.000000 0.000000
										CHANNELS 3 Xrotation Yrotation Zrotation
										JOINT RightHandThumb1
										{
											OFFSET -10.739754 -2.369614 9.225399
											CHANNELS 3 Xrotation Yrotation Zrotation
											JOINT RightHandThumb2
											{
												OFFSET -4.926170 -2.844131 2.844125
												CHANNELS 3 Xrotation Yrotation Zrotation
												JOINT RightHandThumb3
												{
													OFFSET -4.614891 -2.664413 2.664409
													CHANNELS 3 Xrotation Yrotation Zrotation
													JOINT RightHandThumb4
													{
														OFFSET -4.432465 -2.559082 2.559083
														CHANNELS 3 Xrotation Yrotation Zrotation
														End Site
														{
															OFFSET 0.000000 0.000000 0.000000
														}
													}
												}
											}
										}
										JOINT RightHandIndex1
										{
											OFFSET -26.467674 0.187653 6.405298
											CHANNELS 3 Xrotation Yrotation Zrotation
											JOINT RightHandIndex2
											{
												OFFSET -8.792900 0.000000 0.000000
												CHANNELS 3 Xrotation Yrotation Zrotation
												JOINT RightHandIndex3
												{
													OFFSET -10.075203 0.000000 0.000000
													CHANNELS 3 Xrotation Yrotation Zrotation
													End Site
													{
														OFFSET 0.000000 0.000000 0.000000
													}
												}
											}
										}
										JOINT RightHandMiddle1
										{
											OFFSET -25.764404 0.000000 0.000000
											CHANNELS 3 Xrotation Yrotation Zrotation
											JOINT RightHandMiddle2
											{
												OFFSET -9.393974 0.000000 0.000000
												CHANNELS 3 Xrotation Yrotation Zrotation
												JOINT RightHandMiddle3
												{
													OFFSET -10.771950 0.000000 0.000000
													CHANNELS 3 Xrotation Yrotation Zrotation
													End Site
													{
														OFFSET 0.000000 0.000000 0.000000
													}
												}
											}
										}
										JOINT RightHandRing1
										{
											OFFSET -24.660927 0.144547 -6.225808
											CHANNELS 3 Xrotation Yrotation Zrotation
											JOINT RightHandRing2
											{
												OFFSET -9.393799 0.000000 0.000000
												CHANNELS 3 Xrotation Yrotation Zrotation
												JOINT RightHandRing3
												{
													OFFSET -9.928497 0.000000 0.000000
													CHANNELS 3 Xrotation Yrotation Zrotation
													End Site
													{
														OFFSET 0.000000 0.000000 0.000000
													}
												}
											}
										}
										JOINT RightHandPinky1
										{
											OFFSET -23.655350 0.125290 -12.815412
											CHANNELS 3 Xrotation Yrotation Zrotation
											JOINT RightHandPinky2
											{
												OFFSET -8.425102 0.000000 0.000000
												CHANNELS 3 Xrotation Yrotation Zrotation
												JOINT RightHandPinky3
												{
													OFFSET -8.147003 0.000000 0.000000
													CHANNELS 3 Xrotation Yrotation Zrotation
													End Site
													{
														OFFSET 0.000000 0.000000 0.000000
													}
												}
											}
										}
									}
								}
							}
						}
					}
				}
			}
		}
	}
	JOINT LeftUpLeg
	{
		OFFSET 11.394100 -6.187798 -0.413800
		CHANNELS 3 Xrotation Yrotation Zrotation
		JOINT LeftLeg
		{
			OFFSET 0.430247 -32.302673 3.732800
			CHANNELS 3 Xrotation Yrotation Zrotation
			JOINT LeftFoot
			{
				OFFSET -0.430247 -48.264931 -6.423300
				CHANNELS 3 Xrotation Yrotation Zrotation
				JOINT LeftToeBase
				{
					OFFSET 4.230900 -16.068199 23.438400
					CHANNELS 3 Xrotation Yrotation Zrotation
					JOINT LeftToe_End
					{
						OFFSET 4.510700 0.695400 19.974600
						CHANNELS 3 Xrotation Yrotation Zrotation
						End Site
						{
							OFFSET 0.000000 0.000000 0.000000
						}
					}
				}
			}
		}
	}
	JOINT RightUpLeg
	{
		OFFSET -11.333700 -6.187798 -0.413800
		CHANNELS 3 Xrotation Yrotation Zrotation
		JOINT RightLeg
		{
			OFFSET -0.430392 -32.302628 3.733000
			CHANNELS 3 Xrotation Yrotation Zrotation
			JOINT RightFoot
			{
				OFFSET 0.430392 -48.264973 -6.423500
				CHANNELS 3 Xrotation Yrotation Zrotation
				JOINT RightToeBase
				{
					OFFSET -4.230900 -16.068199 23.438400
					CHANNELS 3 Xrotation Yrotation Zrotation
					JOINT RightToe_End
					{
						OFFSET -4.510700 0.695400 19.974600
						CHANNELS 3 Xrotation Yrotation Zrotation
						End Site
						{
							OFFSET 0.000000 0.000000 0.000000
						}
					}
				}
			}
		}
	}
}
MOTION
Frames: 4
Frame Time: 0.016667
0.579153 92.836327 -1.058800 33.964113 -23.497067 7.082659 11.630317 4.110497 -2.080440 5.818537 0.259720 -2.809622 0.000000 0.000000 0.000000 -10.931787 0.793509 3.196300 0.763620 9.298928 -8.496116 -32.953132 4.763626 2.047907 0.000000 0.000000 0.000000 1.952243 -2.052957 14.106887 0.000000 0.000000 0.000000 -76.027334 17.447746 -39.907627 -79.531378 -83.559482 -82.552767 -40.469745 -0.152863 8.942053 17.551585 -5.699191 -12.932252 10.850547 26.127729 8.644758 20.927035 51.115852 0.218651 -0.000002 0.000000 -0.000001 13.980899 1.201561 -55.004367 0.370806 1.161716 -65.441887 -0.000000 -0.000000 0.000000 7.504735 1.174509 -63.778517 1.807879 1.475668 -64.568019 -0.000001 0.000002 0.000003 8.574312 2.179149 -75.148992 -0.207617 1.009284 -57.855049 -0.000000 0.000002 -0.000000 10.030092 13.637104 -84.750230 0.877121 0.062349 -64.595476 -0.000000 -0.000000 -0.000001 4.985254 19.106686 8.633896 0.000000 0.000000 0.000000 -22.095488 5.720154 42.521319 29.456659 69.546871 -32.206186 0.332156 10.304452 -5.342086 18.329294 0.310714 -9.071069 -2.198343 -31.113544 7.361206 -6.566770 -4.138077 2.407582 -0.000001 0.000001 0.000001 2.375162 -3.668636 30.846996 -2.142080 -2.481823 41.032915 0.000002 -0.000002 -0.000002 -1.972133 -5.717199 36.022015 0.289289 -5.113424 49.347932 -0.000001 0.000002 0.000003 -3.257763 -8.572672 37.723336 4.044289 -4.071798 59.216927 -0.000001 0.000001 -0.000000 -6.464739 -11.358785 54.840876 10.730559 -2.567727 66.401836 0.000000 0.000001 0.000002 -89.124584 1.131997 23.646940 93.843084 5.109635 -4.998823 22.140762 -4.875868 2.923225 -33.534808 1.236584 -1.936688 -0.000000 0.000000 0.000000 -52.342403 4.054074 6.693045 47.036248 4.122921 0.431449 -17.681191 -1.987205 0.096940 -11.137431 0.075437 -0.382173 -0.000000 -0.000000 -0.000000 
0.150502 93.433655 5.754929 32.052582 -22.210109 6.705742 13.518818 4.623314 -4.118453 4.946192 0.681142 -1.790054 0.000000 0.000000 0.000000 -10.657558 0.747529 3.502203 -0.964061 8.765076 -7.245215 -30.630028 4.634938 1.209476 0.000000 -0.000000 -0.000000 1.850588 -1.530461 12.872930 0.000000 0.000000 0.000000 -74.590228 15.606163 -37.843367 -144.942434 -87.295616 -147.418787 -48.350868 2.730416 12.545409 17.551585 -5.699186 -12.932252 10.850550 26.127721 8.644757 20.927035 51.115862 0.218651 -0.000001 0.000001 0.000000 13.980899 1.201561 -55.004371 0.370806 1.161715 -65.441887 -0.000002 0.000000 -0.000000 7.504734 1.174513 -63.778517 1.807880 1.475666 -64.568012 0.000001 -0.000000 0.000003 8.574312 2.179154 -75.148992 -0.207616 1.009283 -57.855049 0.000001 0.000002 0.000001 10.030091 13.637109 -84.750230 0.877126 0.062349 -64.595469 -0.000001 0.000001 0.000001 4.599383 20.091992 7.394491 0.000000 0.000000 0.000000 -22.228629 2.483213 40.725881 73.013766 78.448807 -77.195638 3.828298 11.723706 0.088467 16.754300 0.369573 -8.461184 -1.642443 -29.135791 6.903584 -5.717238 -4.655610 1.946965 -0.000003 0.000001 0.000002 2.171757 -3.424943 28.919427 -2.060048 -2.222315 38.754268 -0.000000 -0.000000 -0.000000 -1.682255 -5.183770 33.477373 0.193942 -4.713293 48.099647 -0.000001 -0.000001 -0.000001 -2.821114 -8.304360 35.271158 3.590721 -3.876620 56.964918 -0.000000 -0.000003 -0.000002 -6.055253 -10.420609 51.003970 9.770739 -2.646420 64.230389 -0.000003 0.000001 0.000000 -91.500916 0.816592 22.573695 90.638331 5.589299 -4.422921 20.649033 -5.014861 1.497694 -28.295054 0.252299 -0.444771 -0.000001 -0.000000 -0.000000 -46.328572 4.032769 4.050462 47.153283 2.622400 0.090531 -17.523658 -4.916397 2.802464 -13.395599 1.363700 -0.056955 0.000000 -0.000001 -0.000000 
-0.313154 94.165260 12.646599 30.105643 -20.894254 6.425712 15.497896 5.239165 -6.438071 4.029729 1.227236 -0.599439 0.000000 0.000000 0.000000 -10.285316 0.762046 3.923219 -2.852078 7.836787 -6.163744 -28.170350 4.307466 0.283356 -0.000001 -0.000000 -0.000000 1.718147 -1.109382 11.529363 0.000000 0.000000 0.000000 -73.265486 13.679095 -35.280550 -210.646504 -84.574435 -212.480724 -56.352985 4.804342 15.957420 17.551587 -5.699186 -12.932254 10.850551 26.127728 8.644754 20.927039 51.115862 0.218652 -0.000001 -0.000001 -0.000003 13.980900 1.201562 -55.004367 0.370801 1.161718 -65.441887 -0.000003 0.000002 0.000001 7.504735 1.174514 -63.778510 1.807877 1.475667 -64.568012 0.000002 -0.000001 -0.000002 8.574315 2.179153 -75.148992 -0.207615 1.009283 -57.855049 0.000003 0.000001 -0.000001 10.030093 13.637111 -84.750230 0.877122 0.062350 -64.595476 0.000001 -0.000001 -0.000001 4.280033 20.150728 5.717933 0.000000 0.000000 0.000000 -22.945332 2.376922 38.931470 122.509797 76.439755 -127.618260 5.357774 7.052865 3.426948 15.011004 0.421162 -7.763760 -1.045723 -26.961157 6.336291 -4.772927 -5.239102 1.455198 -0.000003 -0.000001 0.000000 1.966056 -3.143418 26.765531 -1.949407 -1.946048 36.208796 0.000001 -0.000001 0.000001 -1.319219 -4.630093 30.634665 0.107746 -4.267014 46.698727 -0.000000 -0.000002 -0.000000 -2.322585 -8.050479 32.533058 3.109226 -3.624307 54.449974 0.000000 -0.000003 0.000000 -5.502878 -9.469277 46.733210 8.715350 -2.657335 61.799278 -0.000000 -0.000001 0.000001 -92.619073 1.090570 21.368696 85.612870 6.355084 -3.899184 18.912866 -5.082431 -0.054442 -20.138775 -0.374645 1.126988 0.000002 0.000000 -0.000000 -39.013525 3.969534 1.409839 45.302135 1.348944 -0.257025 -16.078141 -8.405444 6.356567 -17.950377 2.648140 0.054182 0.000000 -0.000000 0.000000 
-0.796211 94.983757 19.508663 28.142961 -19.559787 6.230144 17.575170 5.922564 -8.900129 3.077282 1.862035 0.679606 0.000000 0.000000 0.000000 -9.831915 0.832858 4.395546 -4.861720 6.567927 -5.254667 -25.614982 3.813658 -0.693865 -0.000001 -0.000000 0.000000 1.645546 -1.000235 9.830193 0.000000 0.000000 0.000000 -71.214503 12.734337 -32.673593 -207.556827 -81.794766 -208.882580 -60.947636 5.792309 18.734739 17.551585 -5.699182 -12.932252 10.850553 26.127724 8.644758 20.927042 51.115862 0.218656 -0.000001 -0.000003 -0.000001 13.980899 1.201566 -55.004367 0.370808 1.161714 -65.441887 0.000000 0.000001 -0.000001 7.504734 1.174516 -63.778517 1.807877 1.475670 -64.568012 -0.000004 -0.000001 -0.000003 8.574314 2.179156 -75.148992 -0.207615 1.009282 -57.855049 0.000002 -0.000001 -0.000002 10.030094 13.637111 -84.750230 0.877122 0.062349 -64.595469 0.000001 0.000002 -0.000001 3.982585 19.709892 3.730237 0.000000 0.000000 0.000000 -24.454304 4.678990 37.090516 140.273453 71.780425 -145.773422 5.361422 -0.110363 4.820076 13.153473 0.459004 -6.994883 -0.426188 -24.662056 5.664077 -3.761618 -5.872811 0.952485 0.000000 -0.000000 0.000001 1.770447 -2.830789 24.446782 -1.805904 -1.664669 33.469372 -0.000001 0.000002 -0.000001 -0.886107 -4.086505 27.574570 0.038901 -3.788282 45.183904 -0.000000 -0.000002 0.000000 -1.777057 -7.831445 29.587710 2.625427 -3.317449 51.745079 -0.000001 -0.000002 0.000000 -4.811186 -8.568001 42.150682 7.604497 -2.580004 59.179252 -0.000002 0.000000 0.000002 -91.803828 2.107564 19.961597 78.656001 7.384692 -3.373544 16.888165 -5.063463 -1.593805 -9.860519 -0.420671 2.744775 0.000001 -0.000000 0.000000 -31.058789 3.859495 -1.063565 42.143702 -0.306621 -0.588153 -13.092031 -11.392114 10.263806 -22.437882 3.873708 0.701669 0.000000 -0.000000 -0.000000 
